0
SECTION
2
HEADER
9
$INSUNITS
70
4
9
$ACADVER
1
AC1014
9
$HANDSEED
5
FFFF
0
ENDSEC
0
SECTION
2
TABLES
0
TABLE
2
VPORT
5
8
100
AcDbSymbolTable
0
ENDTAB
0
TABLE
2
LTYPE
5
5
100
AcDbSymbolTable
0
LTYPE
5
14
100
AcDbSymbolTableRecord
100
AcDbLinetypeTableRecord
2
BYBLOCK
70
0
0
LTYPE
5
15
100
AcDbSymbolTableRecord
100
AcDbLinetypeTableRecord
2
BYLAYER
70
0
0
ENDTAB
0
TABLE
2
LAYER
5
2
100
AcDbSymbolTable
70
2
0
LAYER
5
50
100
AcDbSymbolTableRecord
100
AcDbLayerTableRecord
2
0
70
0
6
CONTINUOUS
0
ENDTAB
0
TABLE
2
STYLE
5
3
100
AcDbSymbolTable
70
1
0
STYLE
5
11
100
AcDbSymbolTableRecord
100
AcDbTextStyleTableRecord
2
STANDARD
70
0
0
ENDTAB
0
TABLE
2
VIEW
5
6
100
AcDbSymbolTable
70
0
0
ENDTAB
0
TABLE
2
UCS
5
7
100
AcDbSymbolTable
70
0
0
ENDTAB
0
TABLE
2
APPID
5
9
100
AcDbSymbolTable
70
2
0
APPID
5
12
100
AcDbSymbolTableRecord
100
AcDbRegAppTableRecord
2
ACAD
70
0
0
ENDTAB
0
TABLE
2
DIMSTYLE
5
A
100
AcDbSymbolTable
70
1
0
ENDTAB
0
TABLE
2
BLOCK_RECORD
5
1
100
AcDbSymbolTable
70
1
0
BLOCK_RECORD
5
1F
100
AcDbSymbolTableRecord
100
AcDbBlockTableRecord
2
*MODEL_SPACE
0
BLOCK_RECORD
5
1B
100
AcDbSymbolTableRecord
100
AcDbBlockTableRecord
2
*PAPER_SPACE
0
ENDTAB
0
ENDSEC
0
SECTION
2
BLOCKS
0
BLOCK
5
20
100
AcDbEntity
100
AcDbBlockBegin
2
*MODEL_SPACE
0
ENDBLK
5
21
100
AcDbEntity
100
AcDbBlockEnd
0
BLOCK
5
1C
100
AcDbEntity
100
AcDbBlockBegin
2
*PAPER_SPACE
0
ENDBLK
5
1D
100
AcDbEntity
100
AcDbBlockEnd
0
ENDSEC
0
SECTION
2
ENTITIES
0
LWPOLYLINE
5
100
100
AcDbEntity
8
0
100
AcDbPolyline
90
8
70
1
43
0.0
10
-14.5
20
13.999999687075615
42
-0.41421356237309764
10
-13.999999687075615
20
14.5
10
19.000000245869153
20
14.5
42
-0.41421354055084464
10
19.5
20
14.000000208616255
10
19.5
20
-19.000000283122066
42
-0.4142135623730937
10
19.000000283122063
20
-19.5
10
-14.000000245869169
20
-19.5
42
-0.41421358419534898
10
-14.5
20
-19.000000283122063
0
LWPOLYLINE
5
101
100
AcDbEntity
8
0
100
AcDbPolyline
90
8
70
1
43
0.0
10
19.000000283122063
20
-20
10
-14.000000208616257
20
-20
42
-0.41421358419534604
10
-15
20
-19.000000283122063
10
-15
20
13.999999687075615
42
-0.4142135623730957
10
-13.999999687075613
20
15
10
19.000000283122066
20
15
42
-0.41421354055084403
10
20
20
14.000000208616257
10
20
20
-19.000000283122063
42
-0.41421356237309503
0
LWPOLYLINE
5
102
100
AcDbEntity
8
0
100
AcDbPolyline
90
8
70
1
43
0.0
10
-14.5
20
13.999999687075615
42
-0.41421356237309764
10
-13.999999687075615
20
14.5
10
19.000000245869153
20
14.499999999999996
42
-0.41421354055084336
10
19.5
20
14.000000208616257
10
19.5
20
-19.000000283122063
42
-0.41421356237309503
10
19.000000283122063
20
-19.5
10
-14.000000245869167
20
-19.499999999999996
42
-0.41421358419534637
10
-14.5
20
-19.000000283122063
0
LWPOLYLINE
5
103
100
AcDbEntity
8
0
100
AcDbPolyline
90
8
70
1
43
0.0
10
20
20
-19.000000283122063
42
-0.41421356237309503
10
19.000000283122063
20
-20
10
-14.000000208616257
20
-19.999999999999996
42
-0.41421358419534543
10
-15
20
-19.000000283122063
10
-15
20
13.999999687075615
42
-0.41421356237309698
10
-13.999999687075615
20
15
10
19.000000283122063
20
14.999999999999998
42
-0.41421354055084403
10
20
20
14.000000208616257
0
LWPOLYLINE
5
104
100
AcDbEntity
8
0
100
AcDbPolyline
90
8
70
1
43
0.0
10
-14.000000245869167
20
-19.5
10
19.000000283122066
20
-19.5
42
0.4142135623730937
10
19.5
20
-19.000000283122063
10
19.5
20
14.000000208616257
42
0.41421354055084336
10
19.000000245869153
20
14.500000000000002
10
-13.999999687075615
20
14.5
42
0.41421356237309764
10
-14.5
20
13.999999687075615
10
-14.5
20
-19.000000283122063
42
0.41421358419534637
0
LWPOLYLINE
5
105
100
AcDbEntity
8
0
100
AcDbPolyline
90
8
70
1
43
0.0
10
20
20
-19.000000283122063
42
-0.41421356237309503
10
19.000000283122063
20
-20
10
-14.000000208616257
20
-20
42
-0.41421358419534604
10
-15
20
-19.000000283122063
10
-15
20
13.999999687075615
42
-0.41421356237309503
10
-13.999999687075615
20
15
10
19.000000283122063
20
15
42
-0.41421354055084464
10
20
20
14.000000208616257
0
LINE
5
106
100
AcDbEntity
8
0
100
AcDbLine
10
-15
20
-19.000000283122063
30
0
11
-15
21
13.999999687075615
31
0
0
LINE
5
107
100
AcDbEntity
8
0
100
AcDbLine
10
-14.5
20
-19.000000283122066
30
0
11
-14.5
21
13.999999687075613
31
0
0
LINE
5
108
100
AcDbEntity
8
0
100
AcDbLine
10
19.000000283122063
20
-20
30
0
11
-14.000000208616257
21
-20
31
0
0
LINE
5
109
100
AcDbEntity
8
0
100
AcDbLine
10
19.000000283122063
20
-19.5
30
0
11
-14.000000245869169
21
-19.500000000000004
31
0
0
ARC
5
110
100
AcDbEntity
8
0
100
AcDbCircle
10
19.000000283122063
20
-19.000000283122063
30
0
40
0.99999971687793732
210
-0
220
0
230
1
100
AcDbArc
50
-90
51
0
0
LINE
5
111
100
AcDbEntity
8
0
100
AcDbLine
10
20
20
14.000000208616257
30
0
11
20
21
-19.000000283122063
31
0
0
LINE
5
112
100
AcDbEntity
8
0
100
AcDbLine
10
19.5
20
14.000000208616257
30
0
11
19.5
21
-19.000000283122063
31
0
0
ENDSEC
0
SECTION
2
OBJECTS
0
DICTIONARY
5
C
100
AcDbDictionary
3
ACAD_GROUP
350
D
3
ACAD_MLINESTYLE
350
17
0
DICTIONARY
5
D
100
AcDbDictionary
0
DICTIONARY
5
1A
330
C
100
AcDbDictionary
0
DICTIONARY
5
17
100
AcDbDictionary
0
ENDSEC
0
EOF
